<mxfile host="app.diagrams.net" modified="2024-03-19T04:23:12.285Z" agent="Mozilla/5.0" version="22.1.21">
  <diagram id="use-case-diagram" name="Use Case Diagram">
    <mxGraphModel dx="0" dy="0" grid="1" gridSize="10" guides="1" tooltips="1" connect="1" arrows="1" fold="1" page="1" pageScale="1" pageWidth="850" pageHeight="1100" math="0" shadow="0">
      <root>
        <mxCell id="0"/>
        <mxCell id="1" parent="0"/>
        
        <!-- Actor -->
        <mxCell id="2" value="User" style="shape=umlActor;verticalLabelPosition=bottom;verticalAlign=top;html=1;" vertex="1" parent="1">
          <mxGeometry x="120" y="200" width="30" height="60" as="geometry"/>
        </mxCell>

        <!-- Use Cases -->
        <mxCell id="3" value="Register Account" style="ellipse;whiteSpace=wrap;html=1;" vertex="1" parent="1">
          <mxGeometry x="240" y="160" width="140" height="70" as="geometry"/>
        </mxCell>
        
        <mxCell id="4" value="Confirm Email" style="ellipse;whiteSpace=wrap;html=1;" vertex="1" parent="1">
          <mxGeometry x="240" y="260" width="140" height="70" as="geometry"/>
        </mxCell>

        <!-- Connections -->
        <mxCell id="5" value="" style="endArrow=none;html=1;rounded=0;" edge="1" parent="1" source="2" target="3">
          <mxGeometry width="50" height="50" relative="1" as="geometry">
            <mxPoint x="150" y="220" as="sourcePoint"/>
            <mxPoint x="240" y="195" as="targetPoint"/>
          </mxGeometry>
        </mxCell>
        
        <mxCell id="6" value="" style="endArrow=none;html=1;rounded=0;" edge="1" parent="1" source="2" target="4">
          <mxGeometry width="50" height="50" relative="1" as="geometry">
            <mxPoint x="150" y="220" as="sourcePoint"/>
            <mxPoint x="240" y="295" as="targetPoint"/>
          </mxGeometry>
        </mxCell>
      </root>
    </mxGraphModel>
  </diagram>
</mxfile>
